<svg width="24" height="24" viewBox="0 0 24 24" fill="none" xmlns="http://www.w3.org/2000/svg">
<path d="M10.7402 24C10.5826 24 10.4196 23.9913 10.2529 23.9736C10.0861 23.9559 9.92544 23.9213 9.76953 23.8701C9.61451 23.818 9.47005 23.7422 9.33691 23.6416C9.20381 23.5401 9.08981 23.4059 8.99316 23.2393C8.94757 23.1638 8.90302 23.0729 8.85742 22.9658C8.81197 22.8589 8.79009 22.7568 8.79004 22.6592L8.79004 19.5059C8.79008 19.2806 8.83223 19.0467 8.91699 18.8047C9.00175 18.5627 9.09422 18.3484 9.19629 18.1641C9.50713 17.598 9.9241 17.1521 10.4473 16.8262C10.9697 16.5002 11.5537 16.337 12.1982 16.3369C12.4928 16.3369 12.7841 16.3726 13.0723 16.4443C13.3604 16.517 13.6359 16.6229 13.8994 16.7607C14.1618 16.8994 14.4023 17.0707 14.6191 17.2754C14.8371 17.4803 15.0202 17.7192 15.167 17.9902C15.2909 18.2211 15.408 18.4723 15.5146 18.7432C15.6223 19.0142 15.6758 19.2921 15.6758 19.5752L15.6758 22.5889C15.6758 22.7565 15.6372 22.9232 15.5615 23.0908C15.4849 23.2585 15.3835 23.4088 15.2559 23.542C15.1292 23.6751 14.9813 23.7834 14.8154 23.8672C14.6488 23.9508 14.4785 23.9921 14.3027 23.9922L13.624 23.9922C13.317 23.9922 13.056 23.9094 12.8398 23.7461C12.7472 23.2879 12.8743 21.4891 12.7178 21.1582C12.3458 20.7249 11.8811 21.0294 11.8086 21.1582C11.6306 21.4748 11.6699 23.0978 11.6816 23.6104C11.539 23.7267 11.3834 23.8198 11.2158 23.8916C11.0462 23.9633 10.888 24 10.7402 24Z" fill="#D8492C"></path>
<path d="M10.4902 4.31476e-07C10.3325 4.45568e-07 10.1688 0.00867164 10.002 0.0263677C9.83534 0.0440664 9.67524 0.0787555 9.51953 0.129883C9.36456 0.182023 9.22001 0.25786 9.08691 0.358399C8.95383 0.459882 8.8398 0.59411 8.74316 0.760743C8.69757 0.836184 8.65302 0.927073 8.60742 1.03418C8.56195 1.14108 8.54009 1.2432 8.54004 1.34082L8.54004 4.49414C8.54008 4.71944 8.58125 4.95327 8.66602 5.19531C8.75081 5.43745 8.84417 5.65154 8.94629 5.83594C9.25724 6.40221 9.67385 6.84883 10.1973 7.17481C10.7197 7.50075 11.3036 7.66307 11.9482 7.66309C12.2428 7.66309 12.5341 7.62738 12.8223 7.55566C13.1103 7.48302 13.386 7.37706 13.6494 7.23926C13.9118 7.10057 14.1523 6.92932 14.3691 6.72461C14.5871 6.51971 14.7692 6.28079 14.916 6.00977C15.04 5.77888 15.157 5.52774 15.2637 5.25684C15.3713 4.98581 15.4258 4.70794 15.4258 4.4248L15.4258 1.41113C15.4258 1.24356 15.3871 1.07675 15.3115 0.90918C15.2349 0.741533 15.1335 0.591194 15.0059 0.458008C14.8791 0.324874 14.7313 0.216612 14.5654 0.132813C14.3986 0.0490364 14.2277 0.0078126 14.0518 0.00781262L13.374 0.00781268C13.0671 0.00781271 12.8059 0.0907057 12.5898 0.253906C12.4971 0.712011 12.6243 2.51087 12.4678 2.8418C12.0958 3.2753 11.6311 2.97065 11.5586 2.8418C11.3806 2.52541 11.4199 0.902195 11.4316 0.389649C11.2888 0.273122 11.1326 0.180269 10.9648 0.108399C10.7953 0.036759 10.6379 2.63073e-06 10.4902 4.31476e-07Z" fill="#D8492C"></path>
<path d="M21.5771 19.1394C21.7304 18.868 21.7909 18.5957 21.7608 18.3231C21.4199 18.0123 19.8309 17.2247 19.6286 16.9207C19.4471 16.3748 19.9373 16.1161 20.0829 16.1162C20.4396 16.1168 21.793 16.9624 22.2228 17.2299C22.3936 17.1618 22.5515 17.0707 22.6968 16.9578C22.8422 16.8437 22.9517 16.7222 23.0255 16.5917C23.1044 16.4521 23.1789 16.3033 23.2473 16.1469C23.3158 15.9904 23.3667 15.831 23.4012 15.6674C23.4345 15.5042 23.4419 15.3385 23.4232 15.1704C23.4037 15.0018 23.347 14.8334 23.2541 14.6645C23.2129 14.5866 23.1588 14.5017 23.0909 14.408C23.023 14.3142 22.9472 14.2438 22.8644 14.1949L20.1922 12.6182C20.0013 12.5056 19.7823 12.4257 19.5349 12.3797C19.2873 12.3337 19.0588 12.3095 18.8515 12.3076C18.2161 12.2997 17.6293 12.4447 17.0913 12.7449C16.5538 13.0443 16.1242 13.4801 15.8019 14.0505C15.6547 14.3111 15.5398 14.5865 15.4565 14.8773C15.374 15.1686 15.3253 15.4651 15.3104 15.7672C15.2967 16.0688 15.322 16.3673 15.387 16.6617C15.4517 16.957 15.5622 17.2382 15.7185 17.5037C15.8522 17.7289 16.0077 17.9576 16.1841 18.1875C16.3599 18.4181 16.5679 18.6045 16.8077 18.746L19.362 20.2534C19.5041 20.3372 19.6648 20.3867 19.8448 20.4036C20.0251 20.4196 20.2028 20.4046 20.3795 20.3582C20.5557 20.3127 20.7209 20.236 20.8748 20.1312C21.0293 20.0254 21.1503 19.8956 21.2383 19.7399L21.5771 19.1394Z" fill="#5182C7"></path>
<path d="M21.5771 4.55587C21.7303 4.82705 21.7916 5.09932 21.7617 5.37169C21.4224 5.68198 19.8313 6.47027 19.6286 6.77466C19.447 7.32061 19.9373 7.57928 20.0829 7.57911C20.4399 7.57849 21.7952 6.73265 22.2242 6.46573C22.3945 6.53386 22.5519 6.62485 22.6968 6.7375C22.8422 6.85162 22.9517 6.97309 23.0255 7.10366C23.1043 7.24318 23.1789 7.39201 23.2473 7.54843C23.3157 7.70487 23.3667 7.86438 23.4012 8.0279C23.4345 8.19109 23.4419 8.35688 23.4232 8.52491C23.4037 8.69349 23.347 8.86188 23.2541 9.03077C23.2129 9.10877 23.1588 9.19353 23.0909 9.28732C23.023 9.38111 22.9472 9.45155 22.8644 9.50043L20.1922 11.0771C20.0013 11.1897 19.7824 11.2696 19.5349 11.3156C19.2873 11.3616 19.0588 11.3859 18.8515 11.3877C18.2161 11.3956 17.6293 11.2506 17.0913 10.9504C16.5539 10.651 16.1242 10.2152 15.8019 9.64477C15.6547 9.38422 15.5398 9.10876 15.4565 8.81803C15.374 8.52676 15.3253 8.23021 15.3104 7.92814C15.2967 7.62651 15.322 7.32797 15.387 7.03362C15.4517 6.73841 15.5627 6.45783 15.719 6.19248C15.8527 5.96724 16.0077 5.73778 16.1841 5.50785C16.3599 5.27726 16.5679 5.09085 16.8077 4.94933L19.362 3.44189C19.5041 3.35807 19.6648 3.30857 19.8448 3.29173C20.0251 3.27571 20.2028 3.2907 20.3795 3.33707C20.5556 3.38262 20.7209 3.4593 20.8748 3.56416C21.0292 3.66986 21.1503 3.79975 21.2383 3.95536L21.5771 4.55587Z" fill="#FFB570"></path>
<path d="M2.42207 4.55538C2.26863 4.82694 2.20894 5.09943 2.23916 5.37218C2.58075 5.68317 4.16964 6.46981 4.37193 6.77381C4.55342 7.31957 4.06291 7.57909 3.91714 7.57911C3.55998 7.57849 2.20385 6.73097 1.77546 6.4644C1.60524 6.53247 1.44851 6.62412 1.30366 6.73665C1.15808 6.85089 1.04836 6.97293 0.974495 7.10366C0.895631 7.24324 0.821094 7.39193 0.752666 7.54843C0.684257 7.7049 0.632454 7.86386 0.59791 8.02741C0.564604 8.19067 0.558117 8.3568 0.576799 8.52491C0.596306 8.69338 0.652195 8.8615 0.745098 9.03028C0.786237 9.10835 0.841081 9.19343 0.909052 9.28732C0.97694 9.38098 1.05285 9.45162 1.13558 9.50043L3.80697 11.0766C3.99799 11.1893 4.21794 11.2687 4.46557 11.3147C4.71313 11.3608 4.94124 11.3859 5.14854 11.3877C5.78371 11.3956 6.37 11.2499 6.90782 10.9499C7.44535 10.6505 7.87574 10.2153 8.19809 9.64477C8.34531 9.38421 8.46018 9.10877 8.54347 8.81803C8.62598 8.5267 8.67385 8.22978 8.68879 7.92765C8.70247 7.62594 8.67856 7.3272 8.61344 7.03278C8.54875 6.73746 8.43698 6.45658 8.28069 6.19115C8.14699 5.96604 7.99267 5.73679 7.81642 5.507C7.64053 5.27629 7.4314 5.0904 7.19146 4.94884L4.63799 3.44189C4.49592 3.35808 4.33513 3.30858 4.15523 3.29173C3.97485 3.27569 3.7972 3.29069 3.62049 3.33707C3.44426 3.38265 3.27831 3.45873 3.12431 3.56367C2.96995 3.6694 2.84967 3.79971 2.76172 3.95536L2.42207 4.55538Z" fill="#5182C7"></path>
<path d="M2.42207 19.1399C2.26862 18.8683 2.20892 18.5959 2.23916 18.3231C2.58086 18.0121 4.16969 17.2255 4.37193 16.9215C4.55341 16.3758 4.06293 16.1163 3.91714 16.1162C3.56 16.1168 2.20391 16.9643 1.77546 17.2309C1.60524 17.1628 1.44852 17.0712 1.30366 16.9587C1.15808 16.8444 1.04836 16.7224 0.974495 16.5917C0.895641 16.4521 0.821086 16.3034 0.752666 16.1469C0.684262 15.9904 0.63245 15.8315 0.59791 15.6679C0.564617 15.5047 0.557295 15.3389 0.575953 15.1709C0.595411 15.0024 0.65274 14.8346 0.745586 14.6659C0.786654 14.5879 0.840885 14.503 0.908695 14.4093C0.976673 14.3154 1.0527 14.2438 1.13558 14.1949L3.80697 12.6187C3.99799 12.506 4.21794 12.4266 4.46557 12.3806C4.71312 12.3346 4.94125 12.3095 5.14854 12.3076C5.7837 12.2997 6.37001 12.4454 6.90782 12.7454C7.44534 13.0448 7.87574 13.48 8.19809 14.0505C8.3453 14.3111 8.46018 14.5866 8.54347 14.8773C8.62598 15.1686 8.67385 15.4655 8.68879 15.7677C8.70248 16.0694 8.67773 16.3686 8.61259 16.663C8.54789 16.9581 8.43689 17.2389 8.28069 17.5042C8.14699 17.7293 7.99269 17.9585 7.81642 18.1883C7.64052 18.419 7.43191 18.6057 7.19195 18.7473L4.63799 20.2534C4.49593 20.3372 4.33512 20.3867 4.15523 20.4036C3.97505 20.4196 3.79749 20.4053 3.62098 20.3591C3.44473 20.3135 3.27833 20.2366 3.12431 20.1316C2.96996 20.0259 2.84966 19.8956 2.76172 19.7399L2.42207 19.1399Z" fill="#FFB570"></path>
</svg>